<?xml version="1.0" encoding="iso-8859-1"?>
<!-- Generator: Adobe Illustrator 16.0.0, SVG Export Plug-In . SVG Version: 6.00 Build 0)  -->
<!DOCTYPE svg PUBLIC "-//W3C//DTD SVG 1.1//EN" "http://www.w3.org/Graphics/SVG/1.1/DTD/svg11.dtd">
<svg version="1.1" id="&#x30EC;&#x30A4;&#x30E4;&#x30FC;_1"
	 xmlns="http://www.w3.org/2000/svg" xmlns:xlink="http://www.w3.org/1999/xlink" x="0px" y="0px" width="1024px" height="1024px"
	 viewBox="0 0 1024 1024" style="enable-background:new 0 0 1024 1024;" xml:space="preserve">
<g>
	<defs>
		<rect id="SVGID_1_" width="1024" height="1024"/>
	</defs>
	<clipPath id="SVGID_2_">
		<use xlink:href="#SVGID_1_"  style="overflow:visible;"/>
	</clipPath>
	<path style="clip-path:url(#SVGID_2_);fill:#FF0211;" d="M533.307,707.923l226.784-113.487
		c16.028-8.021,26.143-24.355,26.143-42.217V287.408c0-17.862-10.114-34.196-26.143-42.217L533.307,131.703
		c-13.404-6.708-29.206-6.708-42.61,0L263.912,245.191c-16.027,8.021-26.142,24.355-26.142,42.217v264.811
		c0,17.861,10.115,34.196,26.142,42.217l226.784,113.487C504.101,714.631,519.902,714.631,533.307,707.923"/>
	<path style="clip-path:url(#SVGID_2_);fill-rule:evenodd;clip-rule:evenodd;fill:#4DC9FF;" d="M824.055,290.585
		c0,67.893-55.037,122.93-122.93,122.93s-122.931-55.037-122.931-122.93s55.038-122.93,122.931-122.93
		S824.055,222.692,824.055,290.585"/>
	<path style="clip-path:url(#SVGID_2_);fill:#FFFFFF;" d="M299.467,515.194l-24.022-12.064v-71.113
		c0-20.825,11.731-41.575,35.924-38.951c22.621,2.453,40.085,22.531,45.505,35.703c8.473-7.415,16.228-8.99,27.367-7.46
		c12.367,1.699,58.972,19.466,58.972,82.559v83.765l-26.337-13.256v-78.499c0-23.016-14.076-42.248-33.055-44.456
		c-7.832-0.912-14.584,5.383-14.813,18.893c-0.229,13.51,0,79.833,0,79.833l-24.163-12.129v-74.313
		c0-32.826-21.173-43.177-30.446-44.197c-5.221-0.575-14.932,2.556-14.932,19.351V515.194z"/>
	<path style="clip-path:url(#SVGID_2_);fill:#222222;" d="M852.161,896.507h24.951V789.668h-24.951V896.507z M551.49,844.672
		c0-17.837,9.443-32.809,31.545-32.809c18.523,0,32.838,7.864,32.838,7.864v-23.344c0,0-14.492-6.795-33.328-6.795
		c-33.938,0-55.501,23.396-55.501,55.083c0,31.478,23.543,52.655,57.306,52.655c18.974,0,33.909-6.75,33.909-6.75v-22.769
		c0,0-16.2,8.093-33.539,8.093C563.77,875.901,551.49,862.899,551.49,844.672 M259.503,789.647c-14.632,0-24.055,5.28-33.681,16.589
		c-9.09-10.864-19.879-16.589-34.308-16.589c-27.21,0-45.943,20.521-45.943,47.73v59.129h24.575v-61.548
		c0-13.062,7.929-22.912,21.368-22.912c13.561,0,22.212,9.851,22.212,22.912v61.548h24.158v-61.548
		c0-13.062,8.181-22.912,21.619-22.912c13.561,0,22.458,9.851,22.458,22.912v61.548h24.587v-59.129
		C306.548,810.168,286.835,789.647,259.503,789.647 M864.637,777.929c7.617,0,13.792-6.175,13.792-13.792
		s-6.175-13.793-13.792-13.793s-13.793,6.176-13.793,13.793S857.02,777.929,864.637,777.929 M691.974,789.67
		c-31.406,0-54.226,22.605-54.226,53.747c0,31.646,21.376,53.747,51.95,53.747c14.744,0,27.168-8.474,30.986-18.096v17.438h24.522
		v-53.09C745.207,810.767,724.622,789.67,691.974,789.67 M691.746,875.608c-18.033,0-29.259-12.335-29.259-32.191
		c0-18.352,12.592-32.191,29.259-32.191c17.76,0,28.724,12.636,28.724,32.191C720.47,859.022,710.734,875.608,691.746,875.608
		 M455.958,837.378v59.129h24.575v-58.424c0-14.862,7.93-26.036,21.368-26.036l8.875-0.088v-22.313H501.9
		C474.69,789.646,455.958,810.168,455.958,837.378 M771.991,837.378v59.129h24.576v-58.424c0-14.862,7.929-26.036,21.367-26.036
		l8.875-0.088v-22.313h-8.875C790.725,789.646,771.991,810.168,771.991,837.378 M382.438,789.563
		c-33.166,0-52.989,26.605-52.989,54.077c0,33.57,24.083,53.523,57.269,53.523c21.498,0,38.899-6.824,38.899-6.824v-21.548
		c0,0-19.543,8.104-37.714,8.104c-18.454,0-31.312-8.226-33.679-24.628h74.725c0,0,0.737-4.842,0.737-11.823
		C429.687,810.765,407.288,789.563,382.438,789.563 M354.421,832.819c3.535-18.067,16.986-22.73,27.331-22.73
		c11.193,0,24.569,7.133,26.512,22.73H354.421z"/>
</g>
</svg>
